<svg width="25" height="24" viewBox="0 0 25 24" fill="none" xmlns="http://www.w3.org/2000/svg">
<g clip-path="url(#clip0_2050_913)">
<path d="M24.5068 9.50023L24.4728 9.41023L21.0818 0.562235C21.0121 0.388608 20.8898 0.241152 20.732 0.140552C20.5743 0.039952 20.389 -0.0087455 20.2022 0.00129044C20.0154 0.0113264 19.8364 0.0795923 19.6903 0.196512C19.5443 0.313432 19.4385 0.473141 19.3878 0.653235L17.0978 7.66324H7.82477L5.53477 0.653235C5.48296 0.474075 5.37665 0.315494 5.2306 0.199508C5.08455 0.0835214 4.90601 0.0158858 4.71977 0.00599113C4.53353 -0.00390353 4.34883 0.0444338 4.19132 0.144292C4.0338 0.24415 3.91128 0.390574 3.84077 0.563235L0.450774 9.41123L0.415774 9.50023C-0.0723049 10.7759 -0.132379 12.1757 0.244612 13.4885C0.621603 14.8013 1.41522 15.9559 2.50577 16.7782L2.51777 16.7882L2.54777 16.8102L7.70777 20.6772L10.2678 22.6122L11.8218 23.7882C12.0043 23.9263 12.2269 24.001 12.4558 24.001C12.6846 24.001 12.9072 23.9263 13.0898 23.7882L14.6448 22.6122L17.2048 20.6772L22.4018 16.7872L22.4158 16.7772C23.5063 15.9551 24.3 14.8007 24.6771 13.4881C25.0543 12.1755 24.9945 10.7759 24.5068 9.50023Z" fill="#E24329"/>
<path d="M24.5068 9.50003L24.4728 9.41003C22.8202 9.7491 21.263 10.4495 19.9128 11.461L12.4658 17.093L17.2078 20.677L22.4048 16.787L22.4188 16.777C23.5088 15.9545 24.3019 14.7999 24.6785 13.4874C25.0551 12.1748 24.9949 10.7754 24.5068 9.50003Z" fill="#FC6D26"/>
<path d="M7.70703 20.677L10.267 22.612L11.822 23.788C12.0046 23.9261 12.2272 24.0008 12.456 24.0008C12.6849 24.0008 12.9075 23.9261 13.09 23.788L14.645 22.612L17.205 20.677L12.462 17.093L7.70703 20.677Z" fill="#FCA326"/>
<path d="M5.00977 11.461C3.65968 10.4495 2.10243 9.74947 0.449774 9.41101L0.415774 9.50001C-0.0723049 10.7757 -0.132379 12.1755 0.244612 13.4883C0.621603 14.801 1.41522 15.9557 2.50577 16.778L2.51777 16.788L2.54777 16.81L7.70777 20.677L12.4528 17.093L5.00877 11.461H5.00977Z" fill="#FC6D26"/>
</g>
<defs>
<clipPath id="clip0_2050_913">
<rect width="25" height="24" fill="white"/>
</clipPath>
</defs>
</svg>
