<svg width="100" height="100" viewBox="0 0 100 100" fill="none" xmlns="http://www.w3.org/2000/svg">
<path d="M50 98C71.033 98 82.726 98 90.363 90.363C98 82.726 98 71.033 98 50C98 28.967 98 17.274 90.363 9.637C82.726 2 71.033 2 50 2C28.967 2 17.274 2 9.637 9.637C2 17.274 2 28.967 2 50C2 71.033 2 82.726 9.637 90.363C17.274 98 28.967 98 50 98Z" fill="#73DC8C"/>
<path d="M8.93 8.93C12.954 4.905 18.02 2.938 24.65 1.965C31.229 1 39.47 1 49.921 1H50H50.079C60.53 1 68.771 1 75.35 1.965C81.98 2.938 87.046 4.905 91.07 8.93C95.095 12.954 97.063 18.02 98.035 24.65C99 31.229 99 39.47 99 49.921V50V50.079C99 60.53 99 68.771 98.035 75.35C97.063 81.98 95.095 87.046 91.07 91.07C87.046 95.095 81.98 97.062 75.35 98.035C68.771 99 60.53 99 50.079 99H50H49.921C39.47 99 31.229 99 24.65 98.035C18.02 97.062 12.954 95.095 8.93 91.07C4.905 87.046 2.938 81.98 1.965 75.35C1 68.771 1 60.53 1 50.079V50V49.921C1 39.47 1 31.229 1.965 24.65C2.938 18.02 4.905 12.954 8.93 8.93ZM8.93 8.93L9.536 9.536" stroke="#D1D1CF" stroke-opacity="0.2" stroke-width="2"/>
<path d="M69.9145 36.427C69.8735 30.626 65.0275 26 59.2225 26H40.3035C34.5385 26 29.7135 30.555 29.6005 36.315C29.4895 42.208 34.2535 47.038 40.1205 47.038H48.5715C49.2365 47.038 49.4215 47.937 48.8185 48.203L35.8685 53.871C32.1575 55.515 29.5705 59.243 29.6005 63.563C29.6425 69.374 34.4875 74 40.2925 74H44.7275C50.5755 74 55.4515 69.312 55.4415 63.471C55.4315 59.069 52.7015 55.29 48.8475 53.738C48.3475 53.534 48.3475 52.839 48.8375 52.625L63.6595 46.129C67.3695 44.475 69.9555 40.747 69.9145 36.427Z" fill="#1E1919"/>
</svg>
